<svg id="Layer_1" data-name="Layer 1" xmlns="http://www.w3.org/2000/svg" viewBox="0 0 86.45 86.45"><defs><style>.cls-1{fill:#eff0f1;}.cls-2{fill:#9fa1a3;}</style></defs><title>default</title><path class="cls-1" d="M1048.48,967.51q0,21.06,0,42.12c0,.82-.15,1-1,1q-42.24,0-84.48,0c-.81,0-1-.15-1-1q0-42.24,0-84.48c0-.82.15-1,1-1q42.24,0,84.48,0c.81,0,1,.15,1,1Q1048.45,946.33,1048.48,967.51Z" transform="translate(-962.06 -924.17)"/><path class="cls-2" d="M1006.11,966c2.68,0,6.13-.18,9.34,1.41,2.72,1.35,5.36,2.91,6.15,6.1a25,25,0,0,1,.72,9.36c-.28,2.09-2,2.9-3.6,3.68a23.47,23.47,0,0,1-7.83,2,44.53,44.53,0,0,1-14.15-.71,25.38,25.38,0,0,1-6-2.07,4.52,4.52,0,0,1-2.75-4.6,25.09,25.09,0,0,1,1.19-8.12c1.15-3,3.71-4.56,6.49-5.84C998.8,965.76,1002.09,966,1006.11,966Z" transform="translate(-962.06 -924.17)"/><path class="cls-2" d="M997.14,955.21c.09-3.31,1-6.29,4.05-8.05a8,8,0,0,1,12,5.84c.55,3.47-.05,6.63-2.69,9.11a8,8,0,0,1-13.11-4.64A7.48,7.48,0,0,1,997.14,955.21Z" transform="translate(-962.06 -924.17)"/></svg>